<svg xmlns="http://www.w3.org/2000/svg" width="640" height="426" viewBox="0 0 640 426" font-family="Poppins, Segoe UI, Helvetica, Arial, sans-serif">
<defs><linearGradient id="g" x1="0" y1="0" x2="1" y2="1"><stop offset="0" stop-color="#0b061f"/><stop offset="1" stop-color="#6d28d9"/></linearGradient></defs>
<rect width="640" height="426" fill="url(#g)"/>
<circle cx="560" cy="60" r="160" fill="#fff" fill-opacity=".06"/><circle cx="600" cy="400" r="120" fill="#fff" fill-opacity=".05"/>
<line x1="400" y1="150" x2="480" y2="120" stroke="#fff" stroke-opacity=".3" stroke-width="2"/><line x1="400" y1="150" x2="480" y2="180" stroke="#fff" stroke-opacity=".3" stroke-width="2"/><line x1="400" y1="150" x2="480" y2="240" stroke="#fff" stroke-opacity=".3" stroke-width="2"/><line x1="400" y1="150" x2="480" y2="300" stroke="#fff" stroke-opacity=".3" stroke-width="2"/><line x1="400" y1="210" x2="480" y2="120" stroke="#fff" stroke-opacity=".3" stroke-width="2"/><line x1="400" y1="210" x2="480" y2="180" stroke="#fff" stroke-opacity=".3" stroke-width="2"/><line x1="400" y1="210" x2="480" y2="240" stroke="#fff" stroke-opacity=".3" stroke-width="2"/><line x1="400" y1="210" x2="480" y2="300" stroke="#fff" stroke-opacity=".3" stroke-width="2"/><line x1="400" y1="270" x2="480" y2="120" stroke="#fff" stroke-opacity=".3" stroke-width="2"/><line x1="400" y1="270" x2="480" y2="180" stroke="#fff" stroke-opacity=".3" stroke-width="2"/><line x1="400" y1="270" x2="480" y2="240" stroke="#fff" stroke-opacity=".3" stroke-width="2"/><line x1="400" y1="270" x2="480" y2="300" stroke="#fff" stroke-opacity=".3" stroke-width="2"/><line x1="480" y1="120" x2="560" y2="180" stroke="#fff" stroke-opacity=".3" stroke-width="2"/><line x1="480" y1="120" x2="560" y2="240" stroke="#fff" stroke-opacity=".3" stroke-width="2"/><line x1="480" y1="180" x2="560" y2="180" stroke="#fff" stroke-opacity=".3" stroke-width="2"/><line x1="480" y1="180" x2="560" y2="240" stroke="#fff" stroke-opacity=".3" stroke-width="2"/><line x1="480" y1="240" x2="560" y2="180" stroke="#fff" stroke-opacity=".3" stroke-width="2"/><line x1="480" y1="240" x2="560" y2="240" stroke="#fff" stroke-opacity=".3" stroke-width="2"/><line x1="480" y1="300" x2="560" y2="180" stroke="#fff" stroke-opacity=".3" stroke-width="2"/><line x1="480" y1="300" x2="560" y2="240" stroke="#fff" stroke-opacity=".3" stroke-width="2"/><circle cx="400" cy="150" r="14" fill="#fff" fill-opacity=".95"/><circle cx="400" cy="210" r="14" fill="#fff" fill-opacity=".95"/><circle cx="400" cy="270" r="14" fill="#fff" fill-opacity=".95"/><circle cx="480" cy="120" r="14" fill="#fff" fill-opacity=".95"/><circle cx="480" cy="180" r="14" fill="#fff" fill-opacity=".95"/><circle cx="480" cy="240" r="14" fill="#fff" fill-opacity=".95"/><circle cx="480" cy="300" r="14" fill="#fff" fill-opacity=".95"/><circle cx="560" cy="180" r="14" fill="#fff" fill-opacity=".95"/><circle cx="560" cy="240" r="14" fill="#fff" fill-opacity=".95"/>
<text x="40" y="70" font-size="15" font-weight="600" fill="#fff" fill-opacity=".8" letter-spacing="2">COMPUTER SCIENCE THESIS</text>
<text x="40" y="120" font-size="40" font-weight="800" fill="#fff">Room Classifier</text><text x="40" y="166" font-size="40" font-weight="800" fill="#fff">with CNN</text>
<text x="40" y="220" font-size="17" fill="#fff" fill-opacity=".85">Recognizes house rooms from images</text>
<rect x="40" y="330" width="78" height="30" rx="15" fill="#ffffff" fill-opacity=".14" stroke="#ffffff" stroke-opacity=".35"/><text x="79" y="350" text-anchor="middle" font-size="14" font-weight="600" fill="#fff">Python</text><rect x="128.4" y="330" width="112" height="30" rx="15" fill="#ffffff" fill-opacity=".14" stroke="#ffffff" stroke-opacity=".35"/><text x="184" y="350" text-anchor="middle" font-size="14" font-weight="600" fill="#fff">TensorFlow</text><rect x="250.4" y="330" width="87" height="30" rx="15" fill="#ffffff" fill-opacity=".14" stroke="#ffffff" stroke-opacity=".35"/><text x="294" y="350" text-anchor="middle" font-size="14" font-weight="600" fill="#fff">Jupyter</text>
</svg>